<?xml version="1.0" encoding="utf-8"?>
<!-- Generator: Adobe Illustrator 17.0.0, SVG Export Plug-In . SVG Version: 6.00 Build 0)  -->
<!DOCTYPE svg PUBLIC "-//W3C//DTD SVG 1.1//EN" "http://www.w3.org/Graphics/SVG/1.1/DTD/svg11.dtd">
<svg version="1.1" xmlns="http://www.w3.org/2000/svg" xmlns:xlink="http://www.w3.org/1999/xlink" x="0px" y="0px" width="1280px"
	 height="1483.074px" viewBox="0 0 1280 1483.074" enable-background="new 0 0 1280 1483.074" xml:space="preserve">
<g id="Layer_1">
	<polygon opacity="0.3" fill="#A1BFD5" points="1280,73 1120,125.002 1040.697,145.158 960.133,106.092 880.862,168.347 
		800.506,165.834 723.985,130.834 641.483,163.919 560,169.88 480,133.631 399.506,206.392 321.232,220.309 240,206.392 
		157.933,252.152 0,301.88 0,1503.877 1280,1546.45 	"/>
	<polygon opacity="0.4" fill="#8FB2CD" points="1280,181.772 1120,234.114 1040.697,270.865 960.133,216.676 874.968,263.269 
		800.506,317.155 723.985,317.155 641.483,246.396 560,240.897 475.13,199.149 399.506,135.055 294.559,187.171 251.721,310.215 
		157.226,387.833 0,458.535 0,1503.877 1280,1503.877 	"/>
	<polygon opacity="0.4" fill="#519078" points="1280,157.338 1120,194.944 1040.697,241 960.133,191.116 880.862,243.907 
		800.506,287.896 723.985,252.328 641.483,305.391 560,262.531 480,239.761 399.506,268.851 321.232,293.382 240,276.143 
		157.933,296.996 0,411.535 0,1506.877 1280,1506.877 	"/>
</g>
<g id="Animation">
	<g id="_x31_" display="none">
		<g display="inline">
			<defs>
				<circle id="SVGID_65_" cx="-423.682" cy="1418.74" r="75"/>
			</defs>
			<clipPath id="SVGID_1_">
				<use xlink:href="#SVGID_65_"  overflow="visible"/>
			</clipPath>
			<g clip-path="url(#SVGID_1_)">
				<g>
					<rect x="-498.092" y="1344.239" fill="#FFFFFF" width="508.91" height="304.997"/>
					<path fill="#FFFFFF" d="M10.318,1344.739v303.997h-507.91v-303.997H10.318 M11.318,1343.739h-509.91v305.997h509.91V1343.739
						L11.318,1343.739z"/>
				</g>
				<g>
					<rect x="-498.592" y="1369.694" fill="#E4E5E3" width="509.91" height="24.564"/>
				</g>
				<g>
					<rect x="-498.592" y="1419.269" fill="#ECEDEB" width="509.91" height="24.564"/>
				</g>
				<g>
					<rect x="-498.592" y="1468.843" fill="#ECEDEB" width="509.91" height="24.564"/>
				</g>
				<g>
					<rect x="-498.592" y="1343.739" fill="#CFD2CF" width="509.91" height="25.955"/>
				</g>
				<g>
					<rect x="-431.304" y="1348.238" fill="#FFFFFF" width="432.424" height="17.456"/>
				</g>
			</g>
		</g>
	</g>
	<g id="_x32_" display="none">
	</g>
	<g id="_x33_" display="none">
	</g>
	<g id="_x34_">
	</g>
</g>
</svg>
