<?xml version="1.0" encoding="utf-8"?>
<!-- Generator: Adobe Illustrator 17.0.0, SVG Export Plug-In . SVG Version: 6.00 Build 0)  -->
<!DOCTYPE svg PUBLIC "-//W3C//DTD SVG 1.1//EN" "http://www.w3.org/Graphics/SVG/1.1/DTD/svg11.dtd">
<svg version="1.1" id="Layer_1" xmlns="http://www.w3.org/2000/svg" xmlns:xlink="http://www.w3.org/1999/xlink" x="0px" y="0px"
	 width="1280px" height="1252px" viewBox="0 0 1280 1252" enable-background="new 0 0 1280 1252" xml:space="preserve">
<polygon opacity="0.3" fill="#A1BFD5" points="1280,38.36 1120,108.934 1040.697,129.09 960.133,106.092 880.862,168.347 
	800.506,165.834 723.985,130.834 641.483,163.919 560,169.88 480,133.631 399.506,206.392 321.232,220.309 240,206.392 
	157.933,252.152 0,301.88 0,1252 1280,1252 "/>
<polygon opacity="0.4" fill="#8FB2CD" points="1280,123.131 1120,194.046 1040.697,230.932 960.133,216.676 874.968,263.269 
	800.506,317.155 723.985,317.155 641.483,246.396 560,240.897 475.13,199.149 399.506,135.055 294.559,187.171 251.721,310.215 
	157.226,387.833 0,458.535 0,1252 1280,1252 "/>
<polygon opacity="0.4" fill="#519078" points="1280,95.697 1120,151.876 1040.697,198.067 960.133,188.116 880.862,240.907 
	800.506,284.896 723.985,249.328 641.483,302.391 560,259.531 480,236.761 399.506,265.851 321.232,290.382 240,273.143 
	157.933,293.996 0,408.535 0,1252 1280,1252 "/>
</svg>
